<svg width="512" height="512" viewBox="0 0 512 512" fill="none" xmlns="http://www.w3.org/2000/svg">
  <defs>
    <linearGradient id="profGradient" x1="0" y1="0" x2="512" y2="512" gradientUnits="userSpaceOnUse">
      <stop stop-color="#1e3a8a" /> <stop offset="1" stop-color="#3b82f6" /> </linearGradient>
  </defs>
  
  <rect x="32" y="32" width="448" height="448" rx="120" fill="url(#profGradient)" />
  
  <path fill-rule="evenodd" clip-rule="evenodd" d="M160 128C160 110.327 174.327 96 192 96H304C374.711 96 432 153.289 432 224C432 294.711 374.711 352 304 352H224V400C224 417.673 209.673 432 192 432C174.327 432 160 417.673 160 400V128ZM224 288V160H304C339.346 160 368 188.654 368 224C368 259.346 339.346 288 304 288H224Z" fill="white"/>
</svg>